<svg id="svg" xmlns="http://www.w3.org/2000/svg" xmlns:xlink="http://www.w3.org/1999/xlink" width="400" height="444.6927374301676" viewBox="0, 0, 400,444.6927374301676"><g id="svgg"><path id="path0" d="M340.660 18.884 L 333.535 37.768 313.136 38.573 C 301.917 39.016,292.737 39.757,292.737 40.220 C 292.737 40.683,300.279 45.947,309.497 51.918 C 318.715 57.890,326.257 63.075,326.257 63.442 C 326.257 63.809,323.910 71.806,321.041 81.214 C 318.172 90.623,316.131 98.627,316.506 99.001 C 316.881 99.376,324.746 95.558,333.983 90.518 L 350.779 81.353 365.982 89.377 C 374.343 93.790,381.464 97.121,381.806 96.779 C 382.148 96.437,379.594 88.325,376.130 78.752 C 372.666 69.179,369.832 61.149,369.832 60.908 C 369.832 60.667,376.620 56.611,384.916 51.894 C 393.212 47.177,400.000 42.964,400.000 42.531 C 400.000 42.098,391.557 40.557,381.237 39.106 L 362.474 36.468 355.945 18.234 C 352.355 8.205,349.049 -0.000,348.601 -0.000 C 348.152 -0.000,344.579 8.498,340.660 18.884 M189.254 61.900 L 185.062 74.638 171.861 75.431 C 156.087 76.379,156.355 75.557,168.216 86.592 L 177.824 95.531 173.681 107.023 C 168.526 121.324,168.249 121.154,183.164 112.842 L 195.555 105.936 207.902 115.656 C 214.692 121.002,220.549 125.075,220.916 124.707 C 221.284 124.340,219.494 117.566,216.938 109.655 C 214.382 101.744,212.291 94.975,212.291 94.613 C 212.291 94.251,216.313 90.893,221.229 87.151 C 232.468 78.595,232.528 78.787,218.132 77.075 L 206.096 75.644 200.676 62.403 C 194.065 46.253,194.399 46.268,189.254 61.900 M374.261 132.850 C 371.392 141.277,370.448 141.855,359.497 141.887 C 353.947 141.903,354.199 142.991,361.166 149.086 L 367.024 154.211 364.452 161.583 C 361.207 170.880,361.412 171.015,370.650 165.689 L 378.285 161.287 385.865 167.347 C 390.035 170.680,393.759 173.094,394.141 172.712 C 394.690 172.163,391.746 161.413,389.215 154.724 C 388.978 154.096,391.307 151.698,394.392 149.395 C 401.544 144.055,401.444 143.486,393.201 142.624 C 384.621 141.728,385.305 142.297,381.664 133.018 C 377.851 123.299,377.515 123.291,374.261 132.850 M278.771 142.764 L 245.251 154.652 138.547 261.114 L 31.844 367.577 54.853 390.492 C 67.509 403.096,78.402 413.408,79.061 413.408 C 79.720 413.408,128.444 364.511,187.336 304.749 L 294.413 196.089 304.794 164.246 C 310.503 146.732,315.154 132.025,315.129 131.564 C 315.046 130.020,312.436 130.824,278.771 142.764 M12.552 386.889 C 5.648 393.812,0.000 399.804,0.000 400.204 C 0.000 401.253,47.737 444.693,48.890 444.693 C 50.198 444.693,72.626 421.827,72.626 420.493 C 72.626 419.137,27.491 374.302,26.126 374.302 C 25.564 374.302,19.455 379.966,12.552 386.889 " stroke="none" fill="#000000" fill-rule="evenodd"></path></g></svg>